# Wavefront OBJ file automatically generated by Tiled2Unity

# Vertices (Count = 109)
v -48 -16 0
v -64 -16 0
v -64 0 0
v -48 0 0
v -32 -16 0
v -32 0 0
v -16 -16 0
v -16 0 0
v 0 -16 0
v 0 0 0
v -48 -32 0
v -64 -32 0
v -32 -32 0
v -16 -32 0
v 0 -32 0
v -144 -48 0
v -160 -48 0
v -160 -32 0
v -144 -32 0
v -128 -48 0
v -128 -32 0
v -112 -48 0
v -112 -32 0
v -96 -48 0
v -96 -32 0
v -80 -48 0
v -80 -32 0
v -64 -48 0
v -48 -48 0
v -32 -48 0
v -16 -48 0
v 0 -48 0
v -144 -64 0
v -160 -64 0
v -128 -64 0
v -112 -64 0
v -96 -64 0
v -80 -64 0
v -64 -64 0
v -48 -64 0
v -32 -64 0
v -16 -64 0
v 0 -64 0
v -144 -80 0
v -160 -80 0
v -128 -80 0
v -112 -80 0
v -96 -80 0
v -80 -80 0
v -64 -80 0
v -48 -80 0
v -32 -80 0
v -16 -80 0
v 0 -80 0
v -144 -96 0
v -160 -96 0
v -128 -96 0
v -112 -96 0
v -96 -96 0
v -80 -96 0
v -64 -96 0
v -48 -96 0
v -32 -96 0
v -144 -112 0
v -160 -112 0
v -128 -112 0
v -112 -112 0
v -64 -112 0
v -80 -112 0
v -48 -112 0
v -32 -112 0
v -16 -112 0
v -16 -96 0
v 0 -112 0
v 0 -96 0
v -144 -128 0
v -160 -128 0
v -128 -128 0
v -112 -128 0
v -96 -128 0
v -96 -112 0
v -64 -128 0
v -80 -128 0
v -48 -128 0
v -32 -128 0
v -16 -128 0
v 0 -128 0
v -144 -144 0
v -160 -144 0
v -128 -144 0
v -112 -144 0
v -96 -144 0
v -64 -144 0
v -80 -144 0
v -48 -144 0
v -32 -144 0
v -16 -144 0
v 0 -144 0
v -144 -160 0
v -160 -160 0
v -128 -160 0
v -112 -160 0
v -96 -160 0
v -64 -160 0
v -80 -160 0
v -48 -160 0
v -32 -160 0
v -16 -160 0
v 0 -160 0

# Texture cooridinates (Count = 60)
vt 0.5000115 0.5042099
vt 0.5941061 0.5042099
vt 0.5941061 0.5714204
vt 0.5000115 0.5714204
vt 0.3000115 0.5042099
vt 0.3941061 0.5042099
vt 0.3941061 0.5714204
vt 0.3000115 0.5714204
vt 0.4000115 0.5042099
vt 0.4941061 0.5042099
vt 0.4941061 0.5714204
vt 0.4000115 0.5714204
vt 0.2000115 0.5042099
vt 0.2941062 0.5042099
vt 0.2941062 0.5714204
vt 0.2000115 0.5714204
vt 1.148897E-05 0.5042099
vt 0.09410616 0.5042099
vt 0.09410616 0.5714204
vt 1.148897E-05 0.5714204
vt 0.2000115 0.4327813
vt 0.2941062 0.4327813
vt 0.2941062 0.4999918
vt 0.2000115 0.4999918
vt 0.6000115 0.4327813
vt 0.6941062 0.4327813
vt 0.6941062 0.4999918
vt 0.6000115 0.4999918
vt 0.7000115 0.5042099
vt 0.7941062 0.5042099
vt 0.7941062 0.5714204
vt 0.7000115 0.5714204
vt 0.3000115 0.4327813
vt 0.3941061 0.4327813
vt 0.3941061 0.4999918
vt 0.3000115 0.4999918
vt 0.4000115 0.4327813
vt 0.4941061 0.4327813
vt 0.4941061 0.4999918
vt 0.4000115 0.4999918
vt 0.6000115 0.5042099
vt 0.6941062 0.5042099
vt 0.6941062 0.5714204
vt 0.6000115 0.5714204
vt 0.7000115 0.4327813
vt 0.7941062 0.4327813
vt 0.7941062 0.4999918
vt 0.7000115 0.4999918
vt 0.5000115 0.4327813
vt 0.5941061 0.4327813
vt 0.5941061 0.4999918
vt 0.5000115 0.4999918
vt 0.5000115 0.07563847
vt 0.5941061 0.07563847
vt 0.5941061 0.1428489
vt 0.5000115 0.1428489
vt 0.1000115 0.5042099
vt 0.1941062 0.5042099
vt 0.1941062 0.5714204
vt 0.1000115 0.5714204

# Normal
vn 0 0 -1

# Groups (Count = 2)

g mesh_0001
f 1/1/1 2/2/1 3/3/1 4/4/1
f 5/5/1 1/6/1 4/7/1 6/8/1
f 7/5/1 5/6/1 6/7/1 8/8/1
f 9/9/1 7/10/1 8/11/1 10/12/1
f 11/13/1 12/14/1 2/15/1 1/16/1
f 13/17/1 11/18/1 1/19/1 5/20/1
f 14/17/1 13/18/1 5/19/1 7/20/1
f 15/21/1 14/22/1 7/23/1 9/24/1
f 16/1/1 17/2/1 18/3/1 19/4/1
f 20/5/1 16/6/1 19/7/1 21/8/1
f 22/5/1 20/6/1 21/7/1 23/8/1
f 24/5/1 22/6/1 23/7/1 25/8/1
f 26/5/1 24/6/1 25/7/1 27/8/1
f 28/5/1 26/6/1 27/7/1 12/8/1
f 29/25/1 28/26/1 12/27/1 11/28/1
f 30/17/1 29/18/1 11/19/1 13/20/1
f 31/17/1 30/18/1 13/19/1 14/20/1
f 32/21/1 31/22/1 14/23/1 15/24/1
f 33/13/1 34/14/1 17/15/1 16/16/1
f 35/17/1 33/18/1 16/19/1 20/20/1
f 36/17/1 35/18/1 20/19/1 22/20/1
f 37/17/1 36/18/1 22/19/1 24/20/1
f 38/17/1 37/18/1 24/19/1 26/20/1
f 39/17/1 38/18/1 26/19/1 28/20/1
f 40/17/1 39/18/1 28/19/1 29/20/1
f 41/17/1 40/18/1 29/19/1 30/20/1
f 42/17/1 41/18/1 30/19/1 31/20/1
f 43/21/1 42/22/1 31/23/1 32/24/1
f 44/13/1 45/14/1 34/15/1 33/16/1
f 46/17/1 44/18/1 33/19/1 35/20/1
f 47/17/1 46/18/1 35/19/1 36/20/1
f 48/17/1 47/18/1 36/19/1 37/20/1
f 49/17/1 48/18/1 37/19/1 38/20/1
f 50/17/1 49/18/1 38/19/1 39/20/1
f 51/17/1 50/18/1 39/19/1 40/20/1
f 52/29/1 51/30/1 40/31/1 41/32/1
f 53/33/1 52/34/1 41/35/1 42/36/1
f 54/37/1 53/38/1 42/39/1 43/40/1
f 55/13/1 56/14/1 45/15/1 44/16/1
f 57/17/1 55/18/1 44/19/1 46/20/1
f 58/29/1 57/30/1 46/31/1 47/32/1
f 59/33/1 58/34/1 47/35/1 48/36/1
f 60/33/1 59/34/1 48/35/1 49/36/1
f 61/41/1 60/42/1 49/43/1 50/44/1
f 62/17/1 61/18/1 50/19/1 51/20/1
f 63/21/1 62/22/1 51/23/1 52/24/1
f 64/13/1 65/14/1 56/15/1 55/16/1
f 66/17/1 64/18/1 55/19/1 57/20/1
f 67/21/1 66/22/1 57/23/1 58/24/1
f 68/13/1 69/14/1 60/15/1 61/16/1
f 70/17/1 68/18/1 61/19/1 62/20/1
f 71/45/1 70/46/1 62/47/1 63/48/1
f 72/5/1 71/6/1 63/7/1 73/8/1
f 74/9/1 72/10/1 73/11/1 75/12/1
f 76/13/1 77/14/1 65/15/1 64/16/1
f 78/17/1 76/18/1 64/19/1 66/20/1
f 79/45/1 78/46/1 66/47/1 67/48/1
f 80/9/1 79/10/1 67/11/1 81/12/1
f 82/13/1 83/14/1 69/15/1 68/16/1
f 84/17/1 82/18/1 68/19/1 70/20/1
f 85/17/1 84/18/1 70/19/1 71/20/1
f 86/17/1 85/18/1 71/19/1 72/20/1
f 87/21/1 86/22/1 72/23/1 74/24/1
f 88/13/1 89/14/1 77/15/1 76/16/1
f 90/17/1 88/18/1 76/19/1 78/20/1
f 91/17/1 90/18/1 78/19/1 79/20/1
f 92/21/1 91/22/1 79/23/1 80/24/1
f 93/13/1 94/14/1 83/15/1 82/16/1
f 95/17/1 93/18/1 82/19/1 84/20/1
f 96/17/1 95/18/1 84/19/1 85/20/1
f 97/17/1 96/18/1 85/19/1 86/20/1
f 98/21/1 97/22/1 86/23/1 87/24/1
f 99/49/1 100/50/1 89/51/1 88/52/1
f 101/33/1 99/34/1 88/35/1 90/36/1
f 102/33/1 101/34/1 90/35/1 91/36/1
f 103/37/1 102/38/1 91/39/1 92/40/1
f 104/49/1 105/50/1 94/51/1 93/52/1
f 106/33/1 104/34/1 93/35/1 95/36/1
f 107/33/1 106/34/1 95/35/1 96/36/1
f 108/33/1 107/34/1 96/35/1 97/36/1
f 109/37/1 108/38/1 97/39/1 98/40/1

g mesh_0002
f 7/53/1 5/54/1 6/55/1 8/56/1
f 91/57/1 90/58/1 78/59/1 79/60/1

